<?xml version="1.0" encoding="UTF-8"?>
<svg id="_レイヤー_1" data-name="レイヤー_1" xmlns="http://www.w3.org/2000/svg" version="1.1" viewBox="0 0 40 40">
  <!-- Generator: Adobe Illustrator 29.5.1, SVG Export Plug-In . SVG Version: 2.1.0 Build 141)  -->
  <defs>
    <style>
      .st0 {
        fill: #fff;
        fill-rule: evenodd;
      }
    </style>
  </defs>
  <path class="st0" d="M9.2.7H2L.2,27.1c-.1,1.6.1,3.1.6,4.6.5,1.5,1.3,2.8,2.4,4,1.1,1.1,2.4,2,3.8,2.7,1.4.6,3,.9,4.5.9h16.8c1.6,0,3.1-.3,4.5-.9,1.4-.6,2.7-1.5,3.8-2.7,1.1-1.1,1.9-2.5,2.4-3.9.5-1.5.7-3,.6-4.6l-1.8-26.4H9.2ZM4.1,3h5.1v1.4c0,1.4.3,2.8.8,4.1.5,1.3,1.3,2.5,2.3,3.5,1,1,2.2,1.8,3.5,2.3,1.3.5,2.7.8,4.1.8s2.8-.3,4.1-.8c1.3-.5,2.5-1.3,3.5-2.3,1-1,1.8-2.2,2.3-3.5.5-1.3.8-2.7.8-4.1v-1.4h5.1l1.6,24.3c0,1.2,0,2.5-.5,3.7-.4,1.2-1.1,2.3-1.9,3.2-.9.9-1.9,1.6-3,2.1-1.1.5-2.4.8-3.6.7H11.6c-1.2,0-2.5-.3-3.6-.8-1.1-.5-2.2-1.2-3-2.1-.9-.9-1.5-2-1.9-3.2-.4-1.2-.6-2.4-.5-3.7L4.1,3ZM11.5,3h17.1v1.4c0,2.3-.9,4.4-2.5,6-1.6,1.6-3.8,2.5-6,2.5s-4.4-.9-6-2.5-2.5-3.8-2.5-6v-1.4Z"/>
</svg>