<svg width="196" height="52" viewBox="0 0 196 52" fill="none" xmlns="http://www.w3.org/2000/svg">
<path d="M187.216 0.5V9.26855C187.216 10.1487 187.582 10.9985 188.249 11.5801L188.387 11.6934L188.389 11.6943C192.705 14.9842 195.487 20.1572 195.487 26V26.5H195.493C195.344 31.9448 192.768 36.7884 188.802 39.9912L188.401 40.3057L188.399 40.3066C187.645 40.8878 187.229 41.7925 187.229 42.7314V51.5H8.77051V42.7314C8.77051 41.8514 8.40518 41.0015 7.73828 40.4199L7.60059 40.3066L7.59863 40.3057L7.19824 39.9912C3.11111 36.6913 0.5 31.6602 0.5 26C0.5 20.3398 3.11111 15.3087 7.19824 12.0088L7.59863 11.6943L7.60059 11.6934C8.35473 11.1122 8.77051 10.2075 8.77051 9.26855V0.5H187.216Z" stroke="white"/>
<circle cx="11" cy="26" r="2.65" stroke="white" stroke-width="0.7"/>
<circle cx="182" cy="26" r="2.65" stroke="white" stroke-width="0.7"/>
<path d="M68.9686 28.256C68.9686 28.32 69.0006 28.352 69.0646 28.352H71.8326C72.014 28.352 72.174 28.4213 72.3126 28.56C72.4513 28.688 72.5206 28.8427 72.5206 29.024C72.5206 29.216 72.4513 29.3813 72.3126 29.52C72.174 29.648 72.014 29.712 71.8326 29.712H69.0646C69.0006 29.712 68.9686 29.744 68.9686 29.808V32.304C68.9686 32.4853 68.8993 32.6453 68.7606 32.784C68.6326 32.9227 68.478 32.992 68.2966 32.992C68.1046 32.992 67.9393 32.9227 67.8006 32.784C67.6726 32.656 67.6086 32.496 67.6086 32.304V29.808C67.6086 29.744 67.5766 29.712 67.5126 29.712H64.7766C64.5846 29.712 64.4193 29.6427 64.2806 29.504C64.1526 29.3653 64.0886 29.2053 64.0886 29.024C64.0886 28.8427 64.1526 28.688 64.2806 28.56C64.4193 28.4213 64.5846 28.352 64.7766 28.352H67.5126C67.5766 28.352 67.6086 28.32 67.6086 28.256V26.224C67.6086 26.16 67.5766 26.128 67.5126 26.128H65.2886C65.118 26.128 64.9633 26.064 64.8246 25.936C64.686 25.808 64.6166 25.648 64.6166 25.456C64.6166 25.2747 64.6806 25.12 64.8086 24.992C64.9473 24.8533 65.1073 24.784 65.2886 24.784H67.5126C67.5766 24.784 67.6086 24.752 67.6086 24.688V23.184C67.6086 23.12 67.5766 23.088 67.5126 23.088H65.0646C64.8833 23.088 64.7233 23.0187 64.5846 22.88C64.4566 22.7413 64.3926 22.5813 64.3926 22.4C64.3926 22.2187 64.4566 22.064 64.5846 21.936C64.7233 21.7973 64.8833 21.728 65.0646 21.728H67.9926C68.0353 21.728 68.0726 21.712 68.1046 21.68C68.4246 21.392 68.7233 21.056 69.0006 20.672C69.2886 20.2773 69.534 19.8453 69.7366 19.376C69.8006 19.2373 69.8913 19.136 70.0086 19.072C70.126 18.9973 70.2486 18.96 70.3766 18.96C70.4726 18.96 70.558 18.976 70.6326 19.008C70.7713 19.0613 70.8726 19.1467 70.9366 19.264C71.0113 19.3813 71.0486 19.504 71.0486 19.632C71.0486 19.7387 71.0273 19.8347 70.9846 19.92C70.8566 20.1867 70.7073 20.4693 70.5366 20.768C70.366 21.056 70.174 21.3387 69.9606 21.616C69.9073 21.6907 69.9233 21.728 70.0086 21.728H71.5286C71.71 21.728 71.87 21.7973 72.0086 21.936C72.1473 22.064 72.2166 22.2187 72.2166 22.4C72.2166 22.5813 72.1473 22.7413 72.0086 22.88C71.8806 23.0187 71.7206 23.088 71.5286 23.088H69.0646C69.0006 23.088 68.9686 23.12 68.9686 23.184V24.688C68.9686 24.752 69.0006 24.784 69.0646 24.784H71.3046C71.4966 24.784 71.6566 24.8533 71.7846 24.992C71.9233 25.12 71.9926 25.2747 71.9926 25.456C71.9926 25.6373 71.9233 25.7973 71.7846 25.936C71.6566 26.064 71.4966 26.128 71.3046 26.128H69.0646C69.0006 26.128 68.9686 26.16 68.9686 26.224V28.256ZM66.5526 21.216C66.4246 21.0347 66.286 20.848 66.1366 20.656C65.998 20.464 65.8433 20.288 65.6726 20.128C65.5446 20 65.4806 19.8453 65.4806 19.664C65.4806 19.44 65.5606 19.2747 65.7206 19.168C65.87 19.072 66.0246 19.024 66.1846 19.024C66.4513 19.024 66.6646 19.12 66.8246 19.312C66.9953 19.5253 67.15 19.7333 67.2886 19.936C67.4273 20.128 67.55 20.3093 67.6566 20.48C67.7206 20.5867 67.7526 20.6987 67.7526 20.816C67.7526 20.9227 67.726 21.0347 67.6726 21.152C67.6193 21.2587 67.5393 21.344 67.4326 21.408C67.326 21.472 67.2086 21.504 67.0806 21.504C66.8566 21.504 66.6806 21.408 66.5526 21.216ZM63.1766 20.816H59.8806C59.6993 20.816 59.5393 20.7467 59.4006 20.608C59.2726 20.4693 59.2086 20.3147 59.2086 20.144C59.2086 19.9627 59.2726 19.808 59.4006 19.68C59.5393 19.5413 59.6993 19.472 59.8806 19.472H63.1766C63.358 19.472 63.5126 19.536 63.6406 19.664C63.7793 19.792 63.8486 19.952 63.8486 20.144C63.8486 20.3147 63.7846 20.4693 63.6566 20.608C63.5286 20.7467 63.3686 20.816 63.1766 20.816ZM59.4646 21.52H63.6086C63.79 21.52 63.9446 21.5893 64.0726 21.728C64.2113 21.856 64.2806 22.0107 64.2806 22.192C64.2806 22.3733 64.2113 22.5333 64.0726 22.672C63.9446 22.8 63.79 22.864 63.6086 22.864H59.4646C59.2726 22.864 59.1126 22.8 58.9846 22.672C58.8566 22.5333 58.7926 22.3733 58.7926 22.192C58.7926 22.0107 58.8566 21.856 58.9846 21.728C59.1233 21.5893 59.2833 21.52 59.4646 21.52ZM59.9446 23.584H63.1126C63.294 23.584 63.4486 23.6533 63.5766 23.792C63.7153 23.92 63.7846 24.0747 63.7846 24.256C63.7846 24.4373 63.7153 24.5973 63.5766 24.736C63.4486 24.864 63.294 24.928 63.1126 24.928H59.9446C59.774 24.928 59.6193 24.864 59.4806 24.736C59.342 24.5973 59.2726 24.4373 59.2726 24.256C59.2726 24.0747 59.3366 23.92 59.4646 23.792C59.6033 23.6533 59.7633 23.584 59.9446 23.584ZM59.9446 25.632H63.1126C63.294 25.632 63.4486 25.7013 63.5766 25.84C63.7153 25.968 63.7846 26.1227 63.7846 26.304C63.7846 26.4853 63.7153 26.6453 63.5766 26.784C63.4486 26.912 63.294 26.976 63.1126 26.976H59.9446C59.774 26.976 59.6193 26.912 59.4806 26.784C59.342 26.656 59.2726 26.496 59.2726 26.304C59.2726 26.1227 59.342 25.968 59.4806 25.84C59.6193 25.7013 59.774 25.632 59.9446 25.632ZM60.4086 27.728H62.6966C62.9846 27.728 63.23 27.8293 63.4326 28.032C63.646 28.2347 63.7526 28.4853 63.7526 28.784V31.824C63.7526 32.112 63.6513 32.3573 63.4486 32.56C63.246 32.7733 62.9953 32.88 62.6966 32.88H60.4086C60.1206 32.88 59.87 32.7787 59.6566 32.576C59.454 32.3733 59.3526 32.1227 59.3526 31.824V28.784C59.3526 28.4853 59.454 28.2347 59.6566 28.032C59.87 27.8293 60.1206 27.728 60.4086 27.728ZM60.7126 31.504C60.7126 31.568 60.7446 31.6 60.8086 31.6H62.3286C62.3926 31.6 62.4246 31.568 62.4246 31.504V29.104C62.4246 29.04 62.3926 29.008 62.3286 29.008H60.8086C60.7446 29.008 60.7126 29.04 60.7126 29.104V31.504ZM79.1446 31.36C78.6326 30.912 78.2486 30.3253 77.9926 29.6C77.7473 28.8747 77.6246 27.984 77.6246 26.928C77.6246 26.3627 77.6566 25.7547 77.7206 25.104C77.7953 24.4427 77.902 23.7333 78.0406 22.976C78.1366 22.4747 78.1846 22.0853 78.1846 21.808C78.1846 21.5733 78.158 21.376 78.1046 21.216C78.0513 21.0453 77.9713 20.8747 77.8646 20.704C77.79 20.5973 77.7526 20.4693 77.7526 20.32C77.7526 20.2133 77.774 20.112 77.8166 20.016C77.87 19.92 77.95 19.8453 78.0566 19.792C78.1846 19.728 78.3126 19.696 78.4406 19.696C78.558 19.696 78.67 19.7227 78.7766 19.776C78.894 19.8293 78.9846 19.9147 79.0486 20.032C79.2193 20.2987 79.342 20.576 79.4166 20.864C79.502 21.1413 79.5446 21.456 79.5446 21.808C79.5446 22.0107 79.5286 22.2293 79.4966 22.464C79.4753 22.6987 79.438 22.9547 79.3846 23.232C79.246 23.9787 79.1446 24.6667 79.0806 25.296C79.0166 25.9253 78.9846 26.496 78.9846 27.008C78.9846 28.4267 79.262 29.4453 79.8166 30.064C80.3393 30.6613 80.9633 30.96 81.6886 30.96C82.318 30.96 82.974 30.736 83.6566 30.288C84.3393 29.84 84.9953 29.1787 85.6246 28.304C85.774 28.1227 85.9553 28.032 86.1686 28.032C86.3393 28.032 86.4833 28.0853 86.6006 28.192C86.7926 28.3627 86.8886 28.576 86.8886 28.832C86.8886 28.992 86.8406 29.1467 86.7446 29.296C86.062 30.2773 85.278 31.0347 84.3926 31.568C83.5073 32.0907 82.6273 32.352 81.7526 32.352C81.2833 32.352 80.8246 32.2667 80.3766 32.096C79.9393 31.936 79.5286 31.6907 79.1446 31.36ZM99.3046 32.544C99.166 32.544 99.0326 32.5013 98.9046 32.416C98.7766 32.3307 98.686 32.2187 98.6326 32.08C98.2166 31.088 97.8113 30.2773 97.4166 29.648C97.0326 29.008 96.6753 28.4907 96.3446 28.096C96.0246 27.6907 95.742 27.3547 95.4966 27.088C95.262 26.8107 95.0753 26.5493 94.9366 26.304C94.8086 26.0587 94.7446 25.7707 94.7446 25.44C94.7446 25.12 94.8513 24.8107 95.0646 24.512C95.2886 24.2133 95.5766 23.872 95.9286 23.488C96.2806 23.0933 96.6646 22.6027 97.0806 22.016C97.5073 21.4187 97.9233 20.6667 98.3286 19.76C98.382 19.6213 98.4673 19.5147 98.5846 19.44C98.7126 19.3653 98.846 19.328 98.9846 19.328C99.2086 19.328 99.3846 19.408 99.5126 19.568C99.6513 19.7173 99.7206 19.888 99.7206 20.08C99.7206 20.176 99.7046 20.272 99.6726 20.368C99.3633 21.0613 99.054 21.6587 98.7446 22.16C98.4353 22.6613 98.1153 23.1093 97.7846 23.504C97.4646 23.8987 97.1233 24.2933 96.7606 24.688C96.5686 24.9013 96.4246 25.072 96.3286 25.2C96.2326 25.3173 96.1846 25.4347 96.1846 25.552C96.1846 25.6587 96.238 25.776 96.3446 25.904C96.4513 26.032 96.606 26.2133 96.8086 26.448C97.2246 26.8853 97.614 27.3493 97.9766 27.84C98.35 28.32 98.7073 28.8587 99.0486 29.456C99.39 30.0427 99.71 30.7253 100.009 31.504C100.041 31.5787 100.057 31.6693 100.057 31.776C100.057 31.9787 99.9873 32.1547 99.8486 32.304C99.71 32.464 99.5286 32.544 99.3046 32.544ZM120.313 30.832C120.398 30.896 120.462 30.976 120.505 31.072C120.547 31.168 120.569 31.264 120.569 31.36C120.569 31.5307 120.515 31.6747 120.409 31.792C120.153 32.08 119.886 32.304 119.609 32.464C119.331 32.624 119.006 32.736 118.633 32.8C118.259 32.864 117.79 32.896 117.225 32.896C116.585 32.896 116.041 32.848 115.593 32.752C115.145 32.656 114.798 32.4693 114.553 32.192C114.318 31.9147 114.201 31.4987 114.201 30.944V28.848C114.201 28.784 114.169 28.752 114.105 28.752H113.145C113.102 28.752 113.07 28.7787 113.049 28.832C112.462 31.104 110.611 32.48 107.497 32.96C107.294 32.9813 107.113 32.9227 106.953 32.784C106.793 32.656 106.713 32.4853 106.713 32.272C106.713 32.0907 106.771 31.936 106.889 31.808C107.006 31.6693 107.155 31.584 107.337 31.552C109.619 31.232 111.038 30.336 111.593 28.864C111.614 28.7893 111.587 28.752 111.513 28.752H110.169C109.881 28.752 109.63 28.6507 109.417 28.448C109.214 28.2453 109.113 27.9947 109.113 27.696V20.4C109.113 20.112 109.214 19.8667 109.417 19.664C109.63 19.4507 109.881 19.344 110.169 19.344H117.113C117.401 19.344 117.646 19.4507 117.849 19.664C118.062 19.8667 118.169 20.112 118.169 20.4V27.696C118.169 27.9947 118.062 28.2453 117.849 28.448C117.646 28.6507 117.401 28.752 117.113 28.752H115.689C115.625 28.752 115.593 28.784 115.593 28.848V30.768C115.593 31.024 115.635 31.2107 115.721 31.328C115.806 31.4347 115.987 31.504 116.265 31.536C116.553 31.5573 117.001 31.568 117.609 31.568C117.886 31.568 118.115 31.5573 118.297 31.536C118.489 31.5147 118.659 31.4613 118.809 31.376C118.969 31.28 119.139 31.136 119.321 30.944C119.491 30.7733 119.678 30.688 119.881 30.688C120.041 30.688 120.185 30.736 120.313 30.832ZM116.665 22.032C116.729 22.032 116.761 22 116.761 21.936V20.816C116.761 20.752 116.729 20.72 116.665 20.72H110.617C110.553 20.72 110.521 20.752 110.521 20.816V21.936C110.521 22 110.553 22.032 110.617 22.032H116.665ZM110.521 24.624C110.521 24.688 110.553 24.72 110.617 24.72H116.665C116.729 24.72 116.761 24.688 116.761 24.624V23.488C116.761 23.424 116.729 23.392 116.665 23.392H110.617C110.553 23.392 110.521 23.424 110.521 23.488V24.624ZM116.761 26.176C116.761 26.112 116.729 26.08 116.665 26.08H110.617C110.553 26.08 110.521 26.112 110.521 26.176V27.296C110.521 27.36 110.553 27.392 110.617 27.392H116.665C116.729 27.392 116.761 27.36 116.761 27.296V26.176ZM129.417 32.416C128.713 32.416 128.153 32.3147 127.737 32.112C127.321 31.9093 127.022 31.6533 126.841 31.344C126.67 31.024 126.585 30.704 126.585 30.384C126.585 30.2027 126.606 30.0373 126.649 29.888C126.691 29.728 126.75 29.584 126.825 29.456C127.155 28.8693 127.571 28.576 128.073 28.576C128.862 28.576 129.865 29.296 131.081 30.736C131.134 30.8 131.198 30.816 131.273 30.784C131.678 30.6347 132.035 30.448 132.345 30.224C132.665 29.9893 132.926 29.728 133.129 29.44C133.385 29.0667 133.513 28.6613 133.513 28.224C133.513 27.744 133.337 27.3013 132.985 26.896C132.643 26.48 132.121 26.2347 131.417 26.16C131.31 26.1493 131.209 26.144 131.113 26.144C131.017 26.1333 130.915 26.128 130.809 26.128C129.998 26.128 129.187 26.32 128.377 26.704C127.577 27.088 126.729 27.68 125.833 28.48C125.683 28.5973 125.518 28.656 125.337 28.656C125.177 28.656 125.043 28.6187 124.937 28.544C124.755 28.4267 124.665 28.2613 124.665 28.048C124.665 27.9307 124.697 27.824 124.761 27.728C125.433 26.7147 126.131 25.728 126.857 24.768C127.593 23.808 128.334 22.9333 129.081 22.144C129.113 22.0907 129.129 22.0587 129.129 22.048C129.129 21.984 129.086 21.9627 129.001 21.984C128.734 22.0267 128.43 22.0587 128.089 22.08C127.758 22.0907 127.422 22.096 127.081 22.096C126.942 22.096 126.798 22.096 126.649 22.096C126.499 22.096 126.355 22.0907 126.217 22.08C126.035 22.0693 125.881 21.9947 125.753 21.856C125.625 21.7173 125.561 21.552 125.561 21.36C125.561 21.1573 125.635 20.992 125.785 20.864C125.934 20.7253 126.11 20.6613 126.313 20.672C126.75 20.704 127.171 20.72 127.577 20.72C128.11 20.72 128.622 20.688 129.113 20.624C129.614 20.56 130.099 20.448 130.569 20.288C130.654 20.256 130.734 20.24 130.809 20.24C131.139 20.24 131.374 20.3893 131.513 20.688C131.566 20.816 131.593 20.9387 131.593 21.056C131.593 21.3333 131.486 21.568 131.273 21.76C130.59 22.3573 129.977 22.96 129.433 23.568C128.899 24.176 128.382 24.832 127.881 25.536C127.859 25.5787 127.849 25.6053 127.849 25.616C127.849 25.7013 127.902 25.7173 128.009 25.664C128.595 25.3867 129.161 25.184 129.705 25.056C130.249 24.928 130.755 24.864 131.225 24.864C132.131 24.864 132.894 25.0667 133.513 25.472C134.131 25.8773 134.542 26.4213 134.745 27.104C134.862 27.5093 134.921 27.8827 134.921 28.224C134.921 28.992 134.681 29.696 134.201 30.336C133.731 30.9653 133.081 31.472 132.249 31.856C131.427 32.2293 130.483 32.416 129.417 32.416ZM129.593 31.104C129.657 31.104 129.694 31.0827 129.705 31.04C129.726 30.9973 129.71 30.9547 129.657 30.912C129.315 30.5173 129.022 30.2453 128.777 30.096C128.542 29.9467 128.35 29.872 128.201 29.872C128.083 29.872 127.993 29.9093 127.929 29.984C127.875 30.0587 127.849 30.144 127.849 30.24C127.849 30.272 127.849 30.304 127.849 30.336C127.859 30.368 127.87 30.4 127.881 30.432C127.966 30.6453 128.163 30.8107 128.473 30.928C128.782 31.0453 129.155 31.104 129.593 31.104Z" fill="white"/>
</svg>
