<?xml version="1.0" encoding="UTF-8"?>
<svg id="_レイヤー_1" data-name="レイヤー_1" xmlns="http://www.w3.org/2000/svg" version="1.1" viewBox="0 0 24 24">
  <!-- Generator: Adobe Illustrator 29.6.0, SVG Export Plug-In . SVG Version: 2.1.1 Build 207)  -->
  <defs>
    <style>
      .st0 {
        fill: #1a2530;
        fill-rule: evenodd;
      }
    </style>
  </defs>
  <path class="st0" d="M13.8,6.6c.3,0,.6.3.6.6v6.6c0,.3-.3.6-.6.6-.3,0-.6-.3-.6-.6v-6.6c0-.3.3-.6.6-.6ZM17.8,10.5c0,.3-.3.6-.6.6h-6.6c-.3,0-.6-.3-.6-.6,0-.3.3-.6.6-.6h6.6c.3,0,.6.3.6.6ZM19.7,16.4c3.3-3.2,3.3-8.5,0-11.8-3.2-3.3-8.5-3.3-11.8,0-3.3,3.2-3.3,8.5,0,11.8,3.2,3.3,8.5,3.3,11.8,0ZM20.6,3.8c3.7,3.7,3.7,9.7,0,13.5-3.7,3.7-9.6,3.7-13.4,0l-5.6,5.5c-.2.2-.6.2-.8,0-.2-.2-.2-.6,0-.8l5.6-5.6c-3-3.7-2.7-9.2.7-12.7C10.9,0,16.9,0,20.6,3.8Z"/>
</svg>