<?xml version="1.0" encoding="UTF-8"?>
<svg id="_レイヤー_1" data-name="レイヤー_1" xmlns="http://www.w3.org/2000/svg" version="1.1" viewBox="0 0 38.7 41">
  <!-- Generator: Adobe Illustrator 29.5.1, SVG Export Plug-In . SVG Version: 2.1.0 Build 141)  -->
  <defs>
    <style>
      .st0 {
        fill: #fff;
      }
    </style>
  </defs>
  <path class="st0" d="M12.9,9.7c0-1.7.7-3.4,1.9-4.6,1.2-1.2,2.9-1.9,4.6-1.9s3.4.7,4.6,1.9c1.2,1.2,1.9,2.9,1.9,4.6s-.7,3.4-1.9,4.6c-1.2,1.2-2.9,1.9-4.6,1.9s-3.4-.7-4.6-1.9c-1.2-1.2-1.9-2.9-1.9-4.6h0ZM19.4,1c-2.3,0-4.5.9-6.1,2.5-1.6,1.6-2.5,3.8-2.5,6.1s.9,4.5,2.5,6.1c1.6,1.6,3.8,2.5,6.1,2.5s4.5-.9,6.1-2.5c1.6-1.6,2.5-3.8,2.5-6.1s-.9-4.5-2.5-6.1c-1.6-1.6-3.8-2.5-6.1-2.5h0ZM31.4,27.3c2.4,1.8,4,4.9,4.1,10.5H3.1c.2-5.6,1.7-8.7,4.1-10.5,2.7-2,6.7-2.5,12.1-2.5s9.4.6,12.1,2.5ZM19.4,22.7c-5.4,0-10.1.5-13.4,2.9-3.4,2.4-5,6.7-5,13.3v1.1h36.8v-1.1c0-6.7-1.7-10.9-5-13.3-3.3-2.4-8-2.9-13.4-2.9Z"/>
</svg>